<?xml version="1.0" encoding="UTF-8"?>
<svg id="_图层_2" data-name="图层 2" xmlns="http://www.w3.org/2000/svg" xmlns:xlink="http://www.w3.org/1999/xlink" viewBox="0 0 2169.44 1386">
  <defs>
    <style>
    </style>
    <symbol id="_十字星" data-name="十字星" viewBox="0 0 118.63 118.63">
      <polygon points="71.34 71.34 118.63 59.31 71.34 47.28 59.31 0 47.28 47.28 0 59.31 47.28 71.34 59.31 118.63 71.34 71.34"/>
    </symbol>
  </defs>
  <g id="_图层_1-2" data-name="图层 1">
    <path d="M1578.22,161.44c108.56-36.77,337.74-112.21,446.36-115.58,57.82-1.79,97.25,2.5,116.75,31.5,15.96,23.73,4.21,70.82-33.35,125-38.65,55.75-101.92,122.36-188.05,197.99-177.91,156.23-432.61,332.75-717.2,497.06-284.58,164.3-564.81,296.62-789.06,372.58-108.56,36.77-197.89,58.26-265.49,63.86-65.7,5.44-107.99-4.77-122.28-29.54-14.3-24.77-6.05-67.44,31.51-121.62,38.65-55.75,88.41-117.33,174.54-192.96,42-36.88,100.75-99.12,145.74-135.19h0c-51.11,39.56-98.48,78.4-141.39,116.08-129.01,113.29-273.24,264.87-227.74,343.69,17.07,29.56,56.35,41.13,107.37,41.13,84.99,0,202.53-32.09,304.14-66.51,225.46-76.37,506.96-209.26,792.64-374.21,285.69-164.94,541.53-342.28,720.39-499.35,129.01-113.29,273.24-264.87,227.74-343.69-45.5-78.81-248.9-29.7-411.51,25.38-54.05,18.31-111.36,39.9-171.14,64.37"/>
    <path d="M1574.75,202.98C1443.86,72.09,1269.83,0,1084.72,0c-70.66,0-140.38,10.6-207.21,31.51l-2.94.92v.04c-68.48,21.77-132.98,54.02-191.73,95.91-58.82,41.94-110.56,92.57-153.79,150.47-89.84,120.34-137.33,263.55-137.33,414.16,0,185.11,72.09,359.14,202.98,490.03,6.88,6.88,13.9,13.55,21.01,20.1,430.56-202.37,779.48-397.41,785.29-401.56-239.55,171.23-652.35,380.42-752.18,430.23,123,99.89,275.27,154.21,435.9,154.21,168.82,0,331.46-61.4,457.98-172.88,124.6-109.8,205.6-260.21,228.35-423.8h.04s.41-3.07.41-3.07c4.13-30.67,6.22-62.04,6.22-93.25,0-185.1-72.08-359.13-202.97-490.02ZM1401,801.57c-300.48-66.49-525.92-335.02-525.92-655.21,0-35.56,2.81-71.28,8.36-106.22,64.97-20,132.67-30.14,201.28-30.14,376.61,0,683,306.39,683,683,0,29.73-1.93,59.6-5.73,88.85-69.33,23.56-141.96,35.51-215.91,35.51-49.8,0-98.35-5.45-145.08-15.79"/>
    <circle cx="1993.41" cy="349.35" r="106"/>
    <use width="118.63" height="118.63" transform="translate(1777.72 1130.08) scale(2)" xlink:href="#_十字星"/>
    <polygon points="208.74 186.48 312.08 160.19 208.74 133.9 182.45 30.56 156.16 133.9 52.82 160.19 156.16 186.48 182.45 289.83 208.74 186.48"/>
    <circle cx="1357.52" cy="517.58" r="44.57"/>
    <circle cx="1679.57" cy="531.04" r="31.12"/>
    <circle cx="1155.4" cy="103.08" r="31.12"/>
  </g>
</svg>